<svg width="364" height="66" viewBox="0 0 364 66" fill="none" xmlns="http://www.w3.org/2000/svg">
<path d="M11.6114 43.3691V32.8494H40.9873C44.4938 32.8494 47.2726 31.9231 49.3237 30.0706C51.3747 28.1519 52.4002 25.5054 52.4002 22.1311C52.4002 18.6246 51.3747 15.945 49.3237 14.0925C47.2726 12.2399 44.4938 11.3137 40.9873 11.3137H13.1993V64.2101H0V0H39.7964C43.3691 0 46.7103 0.430052 49.8199 1.29016C52.9956 2.15026 55.7414 3.47349 58.057 5.25986C60.4388 7.04623 62.2914 9.32882 63.6146 12.1076C64.9379 14.8864 65.5995 18.2276 65.5995 22.1311C65.5995 25.9685 64.9379 29.2435 63.6146 31.9562C62.2914 34.6688 60.4388 36.8852 58.057 38.6054C55.7414 40.2595 52.9956 41.4835 49.8199 42.2774C46.7103 43.0052 43.3691 43.3691 39.7964 43.3691H11.6114Z" fill="white"/>
<path d="M76.3355 14.8864H89.2371V64.2101H76.3355V14.8864ZM108.192 25.5054C104.487 25.5054 101.279 26.2332 98.5659 27.6887C95.8533 29.0781 93.6699 30.7983 92.0159 32.8494C90.3618 34.9004 89.204 36.8852 88.5424 38.8039L88.4431 33.3456C88.5093 32.5516 88.774 31.3938 89.2371 29.8721C89.7002 28.2842 90.3949 26.5971 91.3212 24.8107C92.2474 22.9582 93.4714 21.2049 94.9932 19.5508C96.5149 17.8306 98.3674 16.4412 100.551 15.3826C102.734 14.324 105.281 13.7947 108.192 13.7947V25.5054Z" fill="white"/>
<path d="M145.246 65.401C139.027 65.401 133.536 64.4086 128.772 62.4237C124.075 60.4388 120.403 57.5608 117.756 53.7896C115.11 49.9522 113.786 45.2547 113.786 39.6971C113.786 34.1395 115.11 29.442 117.756 25.6046C120.403 21.7011 124.075 18.7569 128.772 16.772C133.536 14.7872 139.027 13.7947 145.246 13.7947C151.466 13.7947 156.891 14.7872 161.522 16.772C166.22 18.7569 169.892 21.7011 172.538 25.6046C175.185 29.442 176.508 34.1395 176.508 39.6971C176.508 45.2547 175.185 49.9522 172.538 53.7896C169.892 57.5608 166.22 60.4388 161.522 62.4237C156.891 64.4086 151.466 65.401 145.246 65.401ZM145.246 55.4767C148.687 55.4767 151.763 54.8813 154.476 53.6903C157.255 52.4333 159.438 50.6469 161.026 48.3312C162.614 45.9494 163.408 43.0714 163.408 39.6971C163.408 36.3229 162.614 33.4448 161.026 31.063C159.438 28.615 157.288 26.7625 154.575 25.5054C151.863 24.2483 148.753 23.6198 145.246 23.6198C141.806 23.6198 138.696 24.2483 135.918 25.5054C133.139 26.7625 130.922 28.5819 129.268 30.9637C127.68 33.3456 126.887 36.2567 126.887 39.6971C126.887 43.0714 127.68 45.9494 129.268 48.3312C130.856 50.6469 133.04 52.4333 135.818 53.6903C138.597 54.8813 141.74 55.4767 145.246 55.4767Z" fill="white"/>
<path d="M239.69 14.8864L214.085 42.3767L195.626 64.2101H179.847L206.543 35.3304L224.01 14.8864H239.69ZM179.847 14.8864H195.626L214.284 35.1319L241.079 64.2101H225.3L206.146 42.6744L179.847 14.8864Z" fill="white"/>
<path d="M306.106 64.2101H293.204V14.8864H306.106V64.2101ZM293.899 40.491L293.998 43.8653C293.866 44.7916 293.535 46.1479 293.006 47.9343C292.477 49.6545 291.649 51.507 290.525 53.4919C289.466 55.4767 288.077 57.3954 286.357 59.2479C284.636 61.0343 282.519 62.5229 280.005 63.7139C277.491 64.8386 274.514 65.401 271.073 65.401C268.36 65.401 265.681 65.0702 263.034 64.4086C260.454 63.7469 258.105 62.6553 255.988 61.1335C253.871 59.5457 252.184 57.4285 250.927 54.782C249.67 52.1355 249.041 48.7944 249.041 44.7585V14.8864H261.943V42.5752C261.943 45.7509 262.439 48.2651 263.431 50.1176C264.49 51.904 266.012 53.161 267.997 53.8888C269.981 54.6166 272.33 54.9805 275.043 54.9805C278.616 54.9805 281.692 54.2196 284.272 52.6979C286.853 51.11 288.937 49.1913 290.525 46.9418C292.179 44.6923 293.304 42.5421 293.899 40.491Z" fill="white"/>
<path d="M315.867 47.835H327.776C328.504 50.0845 329.993 51.937 332.242 53.3926C334.558 54.782 337.568 55.4767 341.273 55.4767C343.788 55.4767 345.739 55.2451 347.129 54.782C348.518 54.3189 349.477 53.6573 350.007 52.7972C350.536 51.8709 350.801 50.8454 350.801 49.7206C350.801 48.3312 350.371 47.2726 349.511 46.5449C348.65 45.7509 347.327 45.1224 345.541 44.6592C343.754 44.1961 341.472 43.7661 338.693 43.3691C335.914 42.906 333.235 42.3436 330.654 41.682C328.074 41.0203 325.792 40.1602 323.807 39.1017C321.822 37.9769 320.234 36.5875 319.043 34.9335C317.918 33.2132 317.356 31.1291 317.356 28.6812C317.356 26.2993 317.918 24.1822 319.043 22.3296C320.234 20.4771 321.855 18.9223 323.906 17.6652C326.023 16.4081 328.471 15.4488 331.25 14.7872C334.095 14.1256 337.138 13.7947 340.38 13.7947C345.276 13.7947 349.345 14.5225 352.587 15.9781C355.829 17.3675 358.244 19.3523 359.832 21.9326C361.486 24.4468 362.313 27.3579 362.313 30.666H350.9C350.371 28.218 349.312 26.4647 347.724 25.4061C346.136 24.2814 343.688 23.719 340.38 23.719C337.138 23.719 334.69 24.2152 333.036 25.2077C331.382 26.2001 330.555 27.5564 330.555 29.2766C330.555 30.666 331.051 31.7577 332.044 32.5516C333.102 33.2794 334.624 33.8749 336.609 34.338C338.66 34.8011 341.207 35.2973 344.251 35.8266C346.831 36.3559 349.279 36.9514 351.595 37.613C353.976 38.2746 356.094 39.1347 357.946 40.1933C359.799 41.1858 361.254 42.5421 362.313 44.2623C363.438 45.9163 364 48.0335 364 50.6138C364 53.7896 363.074 56.4691 361.221 58.6525C359.435 60.8358 356.855 62.5229 353.48 63.7139C350.106 64.8386 346.07 65.401 341.373 65.401C337.204 65.401 333.599 64.9709 330.555 64.1108C327.578 63.1846 325.097 62.0267 323.112 60.6373C321.127 59.1818 319.572 57.6601 318.448 56.0722C317.389 54.4181 316.661 52.8633 316.264 51.4078C315.867 49.9522 315.735 48.7613 315.867 47.835Z" fill="white"/>
</svg>
