<svg width="365" height="66" viewBox="0 0 365 66" fill="none" xmlns="http://www.w3.org/2000/svg">
<path d="M12.2114 43.3691V32.8494H41.5872C45.0938 32.8494 47.8726 31.9231 49.9236 30.0706C51.9747 28.1519 53.0002 25.5054 53.0002 22.1311C53.0002 18.6246 51.9747 15.945 49.9236 14.0925C47.8726 12.2399 45.0938 11.3137 41.5872 11.3137H13.7993V64.2101H0.599976V0H40.3963C43.9691 0 47.3102 0.430052 50.4198 1.29016C53.5956 2.15026 56.3413 3.47349 58.657 5.25986C61.0388 7.04623 62.8914 9.32882 64.2146 12.1076C65.5378 14.8864 66.1995 18.2276 66.1995 22.1311C66.1995 25.9685 65.5378 29.2435 64.2146 31.9562C62.8914 34.6688 61.0388 36.8852 58.657 38.6054C56.3413 40.2595 53.5956 41.4835 50.4198 42.2774C47.3102 43.0052 43.9691 43.3691 40.3963 43.3691H12.2114Z" fill="black"/>
<path d="M76.9355 14.8864H89.8371V64.2101H76.9355V14.8864ZM108.792 25.5054C105.087 25.5054 101.879 26.2332 99.1659 27.6887C96.4533 29.0781 94.2699 30.7983 92.6159 32.8494C90.9618 34.9004 89.804 36.8852 89.1424 38.8039L89.0431 33.3456C89.1093 32.5516 89.3739 31.3938 89.8371 29.8721C90.3002 28.2842 90.9949 26.5971 91.9212 24.8107C92.8474 22.9582 94.0714 21.2049 95.5931 19.5508C97.1149 17.8306 98.9674 16.4412 101.151 15.3826C103.334 14.324 105.881 13.7947 108.792 13.7947V25.5054Z" fill="black"/>
<path d="M145.846 65.401C139.627 65.401 134.136 64.4086 129.372 62.4237C124.675 60.4388 121.003 57.5608 118.356 53.7896C115.71 49.9522 114.386 45.2547 114.386 39.6971C114.386 34.1395 115.71 29.442 118.356 25.6046C121.003 21.7011 124.675 18.7569 129.372 16.772C134.136 14.7872 139.627 13.7947 145.846 13.7947C152.066 13.7947 157.491 14.7872 162.122 16.772C166.82 18.7569 170.492 21.7011 173.138 25.6046C175.785 29.442 177.108 34.1395 177.108 39.6971C177.108 45.2547 175.785 49.9522 173.138 53.7896C170.492 57.5608 166.82 60.4388 162.122 62.4237C157.491 64.4086 152.066 65.401 145.846 65.401ZM145.846 55.4767C149.287 55.4767 152.363 54.8813 155.076 53.6903C157.855 52.4333 160.038 50.6469 161.626 48.3312C163.214 45.9494 164.008 43.0714 164.008 39.6971C164.008 36.3229 163.214 33.4448 161.626 31.063C160.038 28.615 157.888 26.7625 155.175 25.5054C152.463 24.2483 149.353 23.6198 145.846 23.6198C142.406 23.6198 139.296 24.2483 136.518 25.5054C133.739 26.7625 131.522 28.5819 129.868 30.9637C128.28 33.3456 127.487 36.2567 127.487 39.6971C127.487 43.0714 128.28 45.9494 129.868 48.3312C131.456 50.6469 133.64 52.4333 136.418 53.6903C139.197 54.8813 142.34 55.4767 145.846 55.4767Z" fill="black"/>
<path d="M240.29 14.8864L214.685 42.3767L196.226 64.2101H180.446L207.143 35.3304L224.61 14.8864H240.29ZM180.446 14.8864H196.226L214.884 35.1319L241.679 64.2101H225.9L206.746 42.6744L180.446 14.8864Z" fill="black"/>
<path d="M306.706 64.2101H293.804V14.8864H306.706V64.2101ZM294.499 40.491L294.598 43.8653C294.466 44.7916 294.135 46.1479 293.606 47.9343C293.076 49.6545 292.249 51.507 291.125 53.4919C290.066 55.4767 288.677 57.3954 286.956 59.2479C285.236 61.0343 283.119 62.5229 280.605 63.7139C278.091 64.8386 275.114 65.401 271.673 65.401C268.96 65.401 266.281 65.0702 263.634 64.4086C261.054 63.7469 258.705 62.6553 256.588 61.1335C254.471 59.5457 252.784 57.4285 251.527 54.782C250.27 52.1355 249.641 48.7944 249.641 44.7585V14.8864H262.543V42.5752C262.543 45.7509 263.039 48.2651 264.031 50.1176C265.09 51.904 266.612 53.161 268.597 53.8888C270.581 54.6166 272.93 54.9805 275.643 54.9805C279.216 54.9805 282.292 54.2196 284.872 52.6979C287.453 51.11 289.537 49.1913 291.125 46.9418C292.779 44.6923 293.904 42.5421 294.499 40.491Z" fill="black"/>
<path d="M316.467 47.835H328.376C329.104 50.0845 330.593 51.937 332.842 53.3926C335.158 54.782 338.168 55.4767 341.873 55.4767C344.388 55.4767 346.339 55.2451 347.729 54.782C349.118 54.3189 350.077 53.6573 350.607 52.7972C351.136 51.8709 351.401 50.8454 351.401 49.7206C351.401 48.3312 350.971 47.2726 350.111 46.5449C349.25 45.7509 347.927 45.1224 346.141 44.6592C344.354 44.1961 342.072 43.7661 339.293 43.3691C336.514 42.906 333.835 42.3436 331.254 41.682C328.674 41.0203 326.392 40.1602 324.407 39.1017C322.422 37.9769 320.834 36.5875 319.643 34.9335C318.518 33.2132 317.956 31.1291 317.956 28.6812C317.956 26.2993 318.518 24.1822 319.643 22.3296C320.834 20.4771 322.455 18.9223 324.506 17.6652C326.623 16.4081 329.071 15.4488 331.85 14.7872C334.695 14.1256 337.738 13.7947 340.98 13.7947C345.876 13.7947 349.945 14.5225 353.187 15.9781C356.429 17.3675 358.844 19.3523 360.432 21.9326C362.086 24.4468 362.913 27.3579 362.913 30.666H351.5C350.971 28.218 349.912 26.4647 348.324 25.4061C346.736 24.2814 344.288 23.719 340.98 23.719C337.738 23.719 335.29 24.2152 333.636 25.2077C331.982 26.2001 331.155 27.5564 331.155 29.2766C331.155 30.666 331.651 31.7577 332.644 32.5516C333.702 33.2794 335.224 33.8749 337.209 34.338C339.26 34.8011 341.807 35.2973 344.851 35.8266C347.431 36.3559 349.879 36.9514 352.195 37.613C354.576 38.2746 356.694 39.1347 358.546 40.1933C360.399 41.1858 361.854 42.5421 362.913 44.2623C364.038 45.9163 364.6 48.0335 364.6 50.6138C364.6 53.7896 363.674 56.4691 361.821 58.6525C360.035 60.8358 357.455 62.5229 354.08 63.7139C350.706 64.8386 346.67 65.401 341.973 65.401C337.804 65.401 334.199 64.9709 331.155 64.1108C328.178 63.1846 325.697 62.0267 323.712 60.6373C321.727 59.1818 320.172 57.6601 319.048 56.0722C317.989 54.4181 317.261 52.8633 316.864 51.4078C316.467 49.9522 316.335 48.7613 316.467 47.835Z" fill="black"/>
</svg>
